<?xml version="1.0" encoding="UTF-8"?>
<svg id="Layer_2" data-name="Layer 2" xmlns="http://www.w3.org/2000/svg" viewBox="0 0 135 35.16">
  <defs>
    <style>
      .cls-1 {
        fill: #fff;
      }

      .cls-2 {
        opacity: .8;
      }
    </style>
  </defs>
  <g id="Layer_1-2" data-name="Layer 1">
    <g class="cls-2">
      <g>
        <g>
          <path class="cls-1" d="M82.8,2.42c0-1.68-1.21-2.42-2.26-2.42s-1.68,.47-2.11,1.05c-.43-.58-1.09-1.05-2.11-1.05s-2.26,.74-2.26,2.42,2.14,4.29,4.37,5.85h0c.35-.19,.7-.47,1.05-.74,.31-.27,.86-.74,1.29-1.17h0c.23-.23,.43-.43,.55-.58h0c.86-1.01,1.44-2.11,1.44-3.31"/>
          <path class="cls-1" d="M42.65,8.19l-.47-.47-5.73,.62v.43l2.3,.51v14.38c-1.4,1.56-3.47,2.42-5.26,2.42-2.88,0-3.98-2.3-3.98-5.42V8.26l-.51-.55-5.77,.62v.43l2.3,.51v12.05c0,3.55,2.03,6.04,6.04,6.04s5.26-.94,7.17-2.88l.12,.12-.12,2.18,.51,.51,3.43-.27V8.23h0l-.04-.04Z"/>
          <path class="cls-1" d="M55.12,7.84c-3.78,0-5.61,3.9-5.61,3.9l-.12-.12,.12-3.39-.51-.55-3.51,.35v1.17h0V26h0v1.09h7.45v-.39l-3.47-.74V13.06s1.6-4.37,4.64-4.37,.47,0,.62,.16v3.08c0,1.56,1.01,2.57,2.46,2.57s2.34-.78,2.34-2.57-1.99-4.13-4.44-4.13"/>
          <path class="cls-1" d="M99.17,22.18h.82c.82,3.66,3.35,4.52,5.61,4.52s4.91-1.44,4.91-3.86-1.91-2.92-4.87-3.66c-3.12-.86-6.35-1.68-6.35-5.77s1.95-5.57,6.78-5.57,3.51,.43,4.87,1.13l.82-.66,.39,.39v4.13h-.78c-.78-3.66-3.31-4.44-5.15-4.44-2.65,0-4.25,1.48-4.25,3.55s1.72,2.77,4.29,3.47c3.35,1.01,6.94,2.07,6.94,6.24s-2.14,5.61-7.52,5.61-3.82-.39-5.3-1.17l-.82,.66-.39-.39v-4.17h0Z"/>
          <path class="cls-1" d="M115.12,22.18h.82c.82,3.66,3.35,4.52,5.61,4.52s4.91-1.44,4.91-3.86-1.91-2.92-4.87-3.66c-3.12-.86-6.35-1.68-6.35-5.77s1.95-5.57,6.78-5.57,3.51,.43,4.87,1.13l.82-.66,.39,.39v4.13h-.78c-.78-3.66-3.31-4.44-5.15-4.44-2.65,0-4.25,1.48-4.25,3.55s1.72,2.77,4.29,3.47c3.35,1.01,6.94,2.07,6.94,6.24s-2.14,5.61-7.52,5.61-3.82-.39-5.3-1.17l-.82,.66-.39-.39v-4.17h0Z"/>
          <path class="cls-1" d="M83.23,31.58h-.12c0-.12-.12-.27-.23-.43-.16-.16-.35-.23-.51-.23-.27,0-.51,.23-.51,.47s.19,.43,.9,.9c.19,.12,.62,.39,.62,.94s-.35,.9-.94,.9-.23,0-.62-.12h-.08c-.05,0-.09,.03-.12,.08h-.12l-.08-.78h.16c.19,.62,.66,.7,.78,.7s.58-.12,.58-.55-.27-.55-.78-.86c-.62-.39-.74-.66-.74-.94,0-.47,.39-.78,.82-.78s.31,0,.47,.08l.19,.08,.08-.08h.12l.08,.7v-.08h.04Z"/>
          <path class="cls-1" d="M85.45,31.03c-.51,0-.51,.12-.51,.55v1.75c0,.47,.12,.51,.55,.55v.12h-1.56v-.12c.43,0,.51-.08,.51-.55v-1.75c0-.47-.12-.51-.55-.55v-.12h1.56v.12Z"/>
          <path class="cls-1" d="M86.97,30.87l2.07,2.3v-1.75c0-.19,0-.39-.23-.39h-.31v-.12h1.29v.12c-.47,0-.51,.12-.51,.43v2.57h-.16l-2.3-2.53v1.91c0,.47,.08,.51,.58,.51v.12h-1.33v-.12c.47,0,.51-.12,.51-.43v-1.99c0-.39-.19-.43-.51-.43v-.12h.86v-.08h.04Z"/>
          <path class="cls-1" d="M92.86,31.69h-.12c-.12-.27-.43-.78-1.13-.78s-1.17,.74-1.17,1.56,.58,1.44,1.13,1.44,1.09-.51,1.25-.7h.12c-.12,.27-.16,.43-.39,.78h-1.01c-1.05,0-1.64-.66-1.64-1.6s.9-1.68,1.72-1.68,.82,.23,.97,.23,.12,0,.16-.08h.12v.74h0v.08Z"/>
          <path class="cls-1" d="M94.46,32.32h.78c.27,0,.35,0,.35-.39h.16v.97h-.16c0-.39-.08-.43-.43-.43h-.7v1.01c0,.21,.1,.31,.31,.31h.55c.31,0,.47,0,.62-.58h.12l-.08,.74h-2.57v-.12c.47,0,.51-.12,.51-.43v-2.03c0-.35-.12-.43-.51-.43v-.12h2.42v.66h-.12c-.08-.47-.19-.51-.55-.51h-.78v1.29h.08v.04Z"/>
          <path class="cls-1" d="M100.3,30.95v.12c-.62,0-.66,0-.66,.35v2.03c0,.23,.22,.35,.66,.35v.12h-1.79v-.12c.62,0,.66,0,.66-.35v-2.03c0-.31,0-.35-.66-.35v-.12h1.79Z"/>
          <path class="cls-1" d="M103.46,30.95v.12l-1.75,4.09h-.35l1.68-3.78h-1.72c-.31,0-.35,0-.43,.39l-.08,.35h-.12l.16-1.17s2.61,0,2.61,0Z"/>
          <path class="cls-1" d="M106.19,32.28c0-1.05-.55-1.29-.86-1.29s-.47,.08-.62,.31c-.16,.19-.19,.58-.19,.9s.08,1.33,.9,1.33,.43-.08,.62-.19c.08-.27,.19-.58,.19-1.05m-2.22,2.73c.35-.12,.74-.27,1.13-.58,.55-.39,.7-.74,.78-.97-.19,.08-.39,.12-.66,.12-.62,0-1.33-.43-1.33-1.33s.62-1.44,1.36-1.44,1.4,.47,1.4,1.6-.23,1.44-1.01,2.03c-.55,.43-1.13,.58-1.6,.7l-.08-.16h0v.04Z"/>
          <path class="cls-1" d="M109.86,32.43c0-.27,0-.62-.23-.94-.12-.19-.43-.39-.82-.39-.66,0-1.01,.58-1.01,1.29s.43,1.36,1.01,1.36,1.01-.47,1.01-1.33m-2.42-.04c0-.62,.39-1.52,1.44-1.52s1.44,.58,1.44,1.6-.55,1.6-1.44,1.6-1.44-.47-1.44-1.64"/>
          <path class="cls-1" d="M68.69,19.69c-2.46,0-4.21-1.87-4.21-5.61s1.68-5.54,4.05-5.61h.16c1.99,0,3.55,1.29,4.05,3.74,.12,.58,.19,1.21,.19,1.91h0c0,3.7-1.75,5.61-4.25,5.61m8.54-12.36c-1.91,1.48-4.56,.94-6.59,.66h0c-.62-.08-1.25-.16-1.91-.16h0c-4.72,0-7.99,2.42-7.99,6.24s.94,3.66,2.57,4.76c-1.72,1.68-2.61,2.92-2.61,4.76s.94,3.12,2.69,3.63h0c.19,0,.55,.12,1.13,.19h0c.35,0,.74,.08,1.13,.08h6.86c2.42,0,3.27,1.21,3.27,2.65,0,2.57-2.88,4.05-7.33,4.05s-5.46-.86-5.46-3.55,.16-1.4,.78-2.3l-1.79-.19c-1.29,.94-2.14,2.03-2.14,3.31,0,2.3,2.96,3.39,7.84,3.39,7.06,0,10.6-2.3,10.6-6.28s-1.83-4.72-6.12-4.72h-6.47c-2.07,0-3-.7-3-2.11s.31-1.75,1.05-2.65c1.29,.78,3,1.13,4.95,1.13,4.76,0,8.03-2.38,8.03-6.16s0-.16,0-.23v-1.05c0-.08,0-.16-.08-.23,0-.12,0-.19-.08-.31,0-.08-.08-.16-.08-.27s0-.12-.08-.19c0-.12-.12-.23-.16-.35,0,0,0-.08-.08-.16-.08-.12-.16-.23-.23-.35l-.08-.08c-.43-.58-.94-1.09-1.56-1.52,1.25,.08,2.77-.16,4.29-1.09,0,0-1.17-.86-1.17-.9"/>
          <path class="cls-1" d="M11.46,26.31H6.59V1.09h4.87c3.31,0,5.73,2.03,5.73,5.96s-2.26,5.81-5.38,5.96h0l-3.86,.16v.47l3.86,.16h0c3.78,.12,6.47,2.18,6.47,6.28s-2.85,6.28-6.82,6.28m3.74-12.98c3.74-.74,6.2-2.96,6.2-6.39S17.62,.31,12.24,.31H0v.35l2.49,.58V26.16l-2.49,.62v.31H12.24c6.04,0,10.25-2.65,10.25-6.94s-2.88-6.04-7.25-6.78"/>
          <path class="cls-1" d="M134.81,7.8h-.51l-.51,1.4c-.08,.19-.12,.43-.19,.66h0c-.08-.23-.12-.47-.19-.66l-.51-1.4h-.51l-.19,2.61h.39l.08-1.56v-.7h0c.08,.23,.12,.51,.19,.7l.55,1.56h.31l.55-1.52c.08-.23,.16-.51,.23-.74h0v.7l.12,1.56h.39l-.19-2.61h0Z"/>
        </g>
        <polygon class="cls-1" points="130.09 8.15 130.91 8.15 130.91 10.41 131.3 10.41 131.3 8.15 132.08 8.15 132.08 7.8 130.09 7.8 130.09 8.15"/>
        <path class="cls-1" d="M83.11,17.89v-.94h0v-.19h0c.19-5.77,2.92-8.34,5.65-8.34s4.52,2.69,4.52,7.99l-8.77,.51v.66h11.93l.55-.51c.16-.51,.19-1.05,.19-1.52,0-4.56-3.59-7.68-8.58-7.68s-9.59,3.86-9.59,9.94,3.2,9.51,9.86,9.51,5.81-1.09,7.68-2.96l-.43-.47c-1.64,1.64-3.47,2.26-5.61,2.26-4.87,0-7.29-3.08-7.41-8.19h0"/>
      </g>
    </g>
  </g>
</svg>