<?xml version="1.0" encoding="UTF-8"?>
<svg xmlns="http://www.w3.org/2000/svg" id="Layer_1" data-name="Layer 1" version="1.1" viewBox="0 0 253.1 82">
  <defs>
    <style>
      .cls-1 {
        fill: #fff;
        stroke-width: 0px;
      }
    </style>
  </defs>
  <rect class="cls-1" x="149.8" y="8" width="1.8" height="14.9"></rect>
  <g>
    <path class="cls-1" d="M162,22.8h1.7v-6.2c0-1.3-.2-2.6-.9-3.7-.7-.8-1.7-1.2-2.8-1.2s-2.1.5-2.7,1.4v-1.1h-1.8v10.8h1.8v-6.6c0-1.8.8-2.8,2.4-2.8s1.2.2,1.6.7c.5.6.7,1.4.6,2.2v6.6h.1Z"></path>
    <path class="cls-1" d="M171.9,21c-.4.3-.9.4-1.4.4-1,0-1.9-.5-2.5-1.3l-1.3,1.2c.4.6,1,1,1.6,1.3.7.3,1.4.5,2.1.5,1,0,1.9-.2,2.7-.8.7-.5,1-1.4,1-2.3s-.3-1.6-.9-2.2c-.8-.6-1.6-1.1-2.5-1.4-.4-.2-.7-.3-.9-.4l-.6-.3c-.2,0-.4-.3-.5-.5s-.2-.4-.2-.6c0-.4.2-.7.5-.9.4-.2.8-.3,1.3-.3.9,0,1.7.4,2.3,1.1l1.2-1.1c-.8-1.1-2.1-1.8-3.5-1.7-.9,0-1.8.2-2.5.8-.6.5-1,1.3-1,2.1s.3,1.5.8,2c.7.6,1.5,1.1,2.4,1.4.5.2.9.4,1.2.5.3.2.6.4.8.6.3.2.4.6.4,1s-.2.8-.5,1"></path>
    <path class="cls-1" d="M183.6,21.8v1h1.8v-10.8h-1.8v6.6c0,1.8-.8,2.8-2.4,2.8s-1.2-.2-1.6-.7c-.5-.6-.7-1.4-.6-2.2v-6.5h-1.8v6.3c0,1.3.2,2.6.9,3.7.7.8,1.8,1.2,2.8,1.1,1,0,2-.4,2.6-1.3"></path>
    <path class="cls-1" d="M190.8,16.7c0-.9.2-1.7.7-2.4.4-.5,1-.7,1.6-.7s1,.2,1.5.5l.3-1.7c-.5-.4-1-.6-1.6-.6-1.1,0-2.1.6-2.5,1.7v-1.4h-1.8v10.8h1.8v-6.1h0Z"></path>
    <path class="cls-1" d="M202.8,20c-.6.9-1.6,1.4-2.7,1.4s-1.2,0-1.6-.5c-.4-.4-.6-.9-.6-1.5s.2-1.1.7-1.5,1.1-.5,1.8-.5,1.7.3,2.4.7v1.8h0ZM200.8,11.7c-1.3,0-2.6.4-3.8,1.1l.5,1.6c.9-.7,1.9-1.1,3-1.1s1.2,0,1.7.5c.5.5.7,1.2.6,1.9v.7c-.8-.5-1.7-.7-2.7-.7s-2,.3-2.8,1-1.2,1.7-1.1,2.7c0,1,.3,2,1,2.7s1.7,1,2.6,1,2.2-.5,3-1.3v1h1.6v-7.2c0-2.6-1.2-3.9-3.7-3.9"></path>
    <path class="cls-1" d="M209.6,16.2c0-1.8.8-2.8,2.4-2.8s1.2.2,1.6.7c.4.6.7,1.4.6,2.2v6.6h1.7v-6.2c0-1.3-.2-2.6-.9-3.7-.7-.8-1.7-1.2-2.8-1.2s-2.1.5-2.7,1.4v-1.1h-1.8v10.8h1.8v-6.6h.1Z"></path>
    <path class="cls-1" d="M223.3,23.1c.9,0,1.7-.2,2.5-.8.7-.5,1.2-1.2,1.4-2l-1.6-.6c-.2,1-1.1,1.7-2.1,1.6-.8,0-1.5-.4-1.9-1-.5-.9-.7-1.9-.6-2.9,0-1,.2-2,.6-2.9.4-.7,1.2-1.1,2-1,.9,0,1.7.6,2,1.4l1.7-.6c-.5-1.6-2-2.7-3.7-2.5-1.2,0-2.4.5-3.2,1.5-.8,1.2-1.3,2.7-1.2,4.2,0,1.5.3,3,1.2,4.2.8,1,1.9,1.5,3.1,1.5"></path>
    <path class="cls-1" d="M232.1,14.2c.5-.5,1.2-.8,2-.8s1.3.3,1.7.8c.6.7.8,1.5.8,2.4h-5.3c0-.9.3-1.7.9-2.4M234.1,23.1c1.3,0,2.5-.5,3.4-1.4l-1.1-1.3c-.6.6-1.4,1-2.2,1s-1.5-.3-2-.9c-.6-.7-.9-1.5-.9-2.4h7v-1.2c0-1.4-.3-2.8-1.2-3.8-.8-.9-1.9-1.3-3.1-1.3s-2.5.5-3.4,1.5c-.9,1.2-1.3,2.7-1.3,4.2s.4,2.9,1.2,4.1c.8,1,2.1,1.6,3.4,1.6"></path>
    <path class="cls-1" d="M153.2,46.8c-.7,0-1.3-.2-1.8-.7s-.7-1.1-.7-1.8.2-1.2.6-1.7c.5-.6,1.2-1.1,1.8-1.5l3.2,4c-.7,1-1.9,1.6-3.1,1.7M152.7,35.2c.3-.3.8-.5,1.2-.4.4,0,.9,0,1.2.5.3.3.5.8.5,1.3,0,.8-.6,1.6-1.9,2.4-.3-.4-.6-.7-.8-1-.2-.2-.3-.5-.5-.8,0-.2-.2-.5-.2-.8s.2-.9.5-1.2M159.5,41.3h-1.7c0,.8-.2,1.5-.6,2.3l-2.7-3.3c.7-.5,1.4-1,2-1.7.5-.6.7-1.3.7-2s-.3-1.7-.9-2.3c-.6-.6-1.5-1-2.4-1s-1.8.3-2.4.9c-.7.6-1,1.5-1,2.4s0,1.1.4,1.6c.4.7.8,1.3,1.3,1.9-.9.5-1.7,1.2-2.4,2-.6.7-.9,1.6-.9,2.6s.4,2.2,1.1,3c.8.8,1.9,1.2,3,1.1,1.7,0,3.3-.7,4.5-2l1.4,1.8h2.3l-2.6-3.3c.6-1.1,1-2.4,1-3.7"></path>
    <path class="cls-1" d="M174.9,43.4c-.2.5-.3.8-.4,1l-.4-1-4.1-10h-1.7v14.8h1.8v-10.7c0,.2.3.8.6,1.6l3.8,9.4,3.9-9.3c.3-.7.5-1.3.6-1.7v10.7h1.8v-14.8h-1.6l-4.1,10h-.2Z"></path>
    <path class="cls-1" d="M190.4,45.8c0,.2-.3.3-.5.5-1.1.9-2.8.7-3.7-.5-.5-.8-.8-1.8-.7-2.8,0-1,.2-2.1.7-2.9,0-.2.3-.4.5-.5,1.1-.9,2.8-.7,3.7.5.5.9.8,1.9.7,2.9,0,1-.2,2-.7,2.9M191.7,38.7s0-.2-.2-.2c-1.9-1.8-4.8-1.7-6.5.2-.9,1.2-1.3,2.7-1.2,4.2,0,1.5.4,3,1.2,4.2,0,0,0,.2.2.2,1.9,1.8,4.8,1.7,6.5-.2.9-1.2,1.3-2.7,1.2-4.2,0-1.5-.4-3-1.2-4.2"></path>
    <path class="cls-1" d="M201.9,45.8c-.4.7-1.2,1.1-2,1.1s-1,0-1.4-.4c-.4-.3-.8-.6-1-1.1v-5c.2-.4.5-.7.9-1s.9-.5,1.5-.5,1.6.3,2,1c.5.9.7,1.9.7,2.9s-.2,2-.7,2.9M200.1,37.2c-1,0-1.9.4-2.6,1.2v-5.4l-1.8.9v14.5h1.7v-1c.7.8,1.7,1.2,2.7,1.2s2.4-.5,3.2-1.5c.8-1.2,1.2-2.7,1.1-4.2,0-1.5-.3-3-1.2-4.2-.8-1-1.9-1.5-3.1-1.5"></path>
    <path class="cls-1" d="M208,35.5c.3,0,.6,0,.8-.3s.3-.5.3-.8,0-.6-.3-.8-.5-.3-.8-.3-.6,0-.8.3-.3.5-.3.8,0,.6.3.8.5.4.8.3"></path>
  </g>
  <rect class="cls-1" x="207.1" y="37.5" width="1.8" height="10.8"></rect>
  <polygon class="cls-1" points="212.3 33.8 212.3 48.3 214.1 48.3 214.1 33 212.3 33.8"></polygon>
  <path class="cls-1" d="M219.3,33.5c-.4-.4-1.1-.4-1.6,0-.2.2-.3.5-.4.8h0c0,.6.5,1.2,1.1,1.1.3,0,.6,0,.8-.3s.4-.5.4-.8,0-.6-.3-.8h0"></path>
  <rect class="cls-1" x="217.6" y="37.5" width="1.8" height="10.8"></rect>
  <g>
    <path class="cls-1" d="M227.7,39.1v-1.6h-2.6v-4.5l-1.8.9v3.6h-1.7v1.6h1.7v6.9c0,1.7.7,2.6,2.2,2.6s1.4-.2,2-.5l.2-1.8c-.5.3-1,.5-1.5.6-.3,0-.7,0-.9-.4-.2-.3-.2-.7-.2-1.1v-6.3h2.6Z"></path>
    <path class="cls-1" d="M233.4,52.4l5.4-15h-1.8l-2.7,7.4c0,.3-.2.7-.3,1,0-.4-.2-.7-.3-1l-2.6-7.4h-1.8l3.8,10.5-1.6,4.4h1.9,0Z"></path>
    <path class="cls-1" d="M157.2,66.5c-.4-.3-.9-.6-1.3-.9-.5-.3-1-.5-1.6-.7l-1.2-.5c-.3,0-.6-.3-.9-.5-.3-.2-.5-.4-.7-.7-.4-.8-.2-1.8.4-2.3.5-.4,1.1-.6,1.8-.5.6,0,1.2,0,1.7.4.4.3.7.6.9,1.1l1.6-.6c-.2-.8-.7-1.5-1.4-1.9-.8-.5-1.8-.8-2.8-.7-1.2,0-2.3.3-3.2,1.1-.8.6-1.2,1.6-1.2,2.6s0,.9.3,1.4c0,.4.4.7.6,1,.3.3.6.6,1,.8s.7.4,1.1.6c.3,0,.7.3,1.2.5.9.3,1.7.7,2.4,1.2l.2.2c.9,1,.9,2.6,0,3.5-.6.5-1.3.7-2.1.6-1.4,0-2.8-.8-3.3-2.2l-1.7.6c.3,1,1,1.8,1.8,2.4.9.6,2,1,3.1,1s2.4-.3,3.4-1.1c.9-.8,1.4-1.9,1.3-3.1,0-.6,0-1.3-.4-1.8-.2-.5-.6-1-1.1-1.4"></path>
    <path class="cls-1" d="M168.6,71.2c0,.2-.3.3-.4.4-1.1.9-2.8.7-3.7-.4-.5-.9-.8-1.9-.7-2.9,0-1,.2-2.1.7-2.9,0-.2.3-.4.5-.5,1.1-.9,2.8-.7,3.7.5,1,1.8,1,4,0,5.8M169.6,63.9c-1.9-1.8-4.8-1.7-6.5.2-1.7,2.5-1.7,5.8,0,8.3,0,0,0,.2.2.2,1.9,1.8,4.8,1.7,6.5-.2,1.7-2.5,1.7-5.8,0-8.3,0,0,0-.2-.2-.2"></path>
  </g>
  <polygon class="cls-1" points="174.9 59.3 174.9 73.7 176.6 73.7 176.6 58.4 174.9 59.3"></polygon>
  <g>
    <path class="cls-1" d="M187.4,69.5c0,1.8-.8,2.8-2.4,2.8s-1.2-.2-1.6-.7c-.4-.6-.7-1.4-.6-2.1v-6.5h-1.8v6.3c0,1.3.2,2.6.9,3.7.7.8,1.8,1.2,2.8,1.1,1,0,2-.5,2.6-1.3v1h1.8v-10.8h-1.8v6.6h0Z"></path>
    <path class="cls-1" d="M195.9,71.9c-.2-.3-.3-.7-.2-1.1v-6.3h2.6v-1.6h-2.6v-4.5l-1.8,1v3.5h-1.7v1.6h1.7v6.9c0,1.7.7,2.6,2.2,2.6s1.4-.2,2-.5l.2-1.8c-.5.3-1,.5-1.5.6-.3,0-.7,0-.9-.4"></path>
    <path class="cls-1" d="M203.5,58.9c-.4-.4-1.1-.4-1.5,0s-.3.5-.3.8,0,.6.3.8c.4.4,1.1.4,1.6,0,.2-.2.3-.5.3-.8s0-.6-.3-.8h0"></path>
  </g>
  <rect class="cls-1" x="201.8" y="62.9" width="1.8" height="10.8"></rect>
  <g>
    <path class="cls-1" d="M213.9,71.2c0,.2-.3.3-.4.4-1.1.9-2.8.7-3.7-.4-.5-.9-.8-1.9-.7-2.9,0-1,.2-2.1.7-2.9,0-.2.3-.4.5-.5,1.1-.9,2.8-.7,3.7.5,1,1.8,1,4,0,5.8M215,63.9c-1.9-1.8-4.8-1.7-6.5.2-1.7,2.5-1.7,5.8,0,8.3,0,0,0,.2.2.2,1.9,1.8,4.8,1.7,6.5-.2,1.7-2.5,1.7-5.8,0-8.3,0,0,0-.2-.2-.2"></path>
    <path class="cls-1" d="M224.6,62.6c-1.1,0-2.1.5-2.7,1.4v-1.1h-1.8v10.8h1.8v-6.6c0-1.8.8-2.8,2.4-2.8s1.2.2,1.6.7c.4.6.7,1.4.6,2.2v6.5h1.7v-6.2c0-1.3-.2-2.6-.9-3.7-.7-.8-1.7-1.2-2.8-1.1"></path>
    <path class="cls-1" d="M235.9,67.3c-.4-.2-.7-.3-.9-.4l-.6-.3c-.2,0-.4-.3-.5-.5,0-.2,0-.4,0-.6,0-.4.2-.7.5-.9.4-.2.8-.3,1.3-.3.9,0,1.7.4,2.3,1l1.2-1.1c-.9-1.1-2.2-1.7-3.5-1.6-.9,0-1.8.2-2.5.8-.6.5-1,1.3-1,2.1s.3,1.5.8,2c.7.6,1.5,1.1,2.4,1.4.5.2.9.4,1.2.5.3.2.6.4.8.6.2.3.4.6.4,1s-.2.8-.5,1c-.4.3-.9.4-1.4.3-1,0-1.9-.5-2.5-1.3l-1.3,1.1c.4.6,1,1,1.6,1.3.7.3,1.4.5,2.1.5,1,0,1.9-.2,2.7-.9.7-.5,1-1.4,1-2.3s-.3-1.6-.9-2.2c-.8-.6-1.6-1.1-2.5-1.4"></path>
  </g>
  <rect class="cls-1" x="248.1" width="5" height="82"></rect>
  <path class="cls-1" d="M15.5,16.2h10.3v49.6h-10.3V16.2ZM36.3,16.2h10.5l11.1,25.3c.3.7.7,1.8,1.1,3.1.5-1.3.8-2.4,1.2-3.1l11.4-25.3h9.6v49.6h-10.3v-26.2c-.2.6-.4,1-.6,1.4l-11.6,25.6-11.7-25.5c-.1-.3-.3-.9-.5-1.6v26.2h-10.3V16.1h0ZM113.8,48.5c-.9-.8-1.8-1.5-2.9-1.9-1-.4-2.6-1-4.7-1.7-1.4-.5-2.5-.8-3.2-1.1s-1.7-.7-3-1.2c-1-.4-2-.9-3-1.6-.7-.5-1.5-1.1-2.4-1.9-.9-.7-1.6-1.5-2.1-2.5s-1-2.1-1.3-3.2c-.4-1.3-.5-2.6-.5-4,0-3.9,1.6-7.6,4.5-10,3-2.7,7-4.1,12.2-4.1,3.8,0,7.6,1.1,10.7,3.5,2.8,2.2,4.9,5.4,5.8,9l-9.2,3.1c-1.2-3.4-4.4-5.5-7.8-5.3-3.9,0-5.8,1.3-5.8,4s.2,1.2.6,1.6c.5.6,1.2,1.1,2,1.4.9.5,1.7.8,2.3,1.1.6.2,1.7.6,3.2,1.2,1.5.6,2.9,1,3.8,1.4.9.3,2.1.8,3.7,1.5,1.3.5,2.6,1.3,3.7,2.2,1,.9,1.9,1.8,2.8,2.8,1,1.1,1.7,2.4,2.1,3.8.4,1.6.7,3.2.6,4.8,0,4.4-1.7,8.5-5.1,11.2-3.4,2.7-7.6,4.1-12.7,4.1-4.3,0-8.5-1.2-11.9-3.8-3.4-2.7-5.9-6.4-7.2-10.7l9.2-3.6c1,2.2,2.4,4.2,4.3,5.7,1.7,1.4,3.7,2.2,5.9,2.2,1.8,0,3.6-.4,5.2-1.3,1.2-.8,2-2.3,1.9-3.8,0-1.1-.5-2.2-1.4-2.9M0,82h141.1V0H0v82h0Z"></path>
</svg>
