<?xml version="1.0" encoding="UTF-8"?>
<svg xmlns="http://www.w3.org/2000/svg" id="Layer_1" data-name="Layer 1" version="1.1" viewBox="0 0 459.7 224.1">
  <defs>
    <style>
      .cls-1 {
        fill: #fff;
        stroke-width: 0px;
      }
    </style>
  </defs>
  <path class="cls-1" d="M305.9,17.4c.2,2,.8,4,1.8,5.8.6,1,1.2,2,2,2.9h0c5.6,6.5,15.4,7.2,21.9,1.6.6-.5,1.1-1,1.6-1.6h0c.7-.9,1.4-1.8,1.9-2.8h0c.2-.5.4-.9.5-1.3l.2-.4c0-.3.3-.7.4-1,0-.2,0-.3.2-.5,0-.2.2-.6.2-.9s0-.4,0-.5c0-.2,0-.6.2-1v-3.6c-.2-2-.8-4-1.8-5.8-.6-1-1.2-2-2-2.9h0c-5.6-6.5-15.4-7.2-21.9-1.6-.6.5-1.1,1-1.6,1.6h0c-.7.9-1.4,1.8-1.9,2.8h0c-.2.5-.4.9-.5,1.3l-.2.4c0,.3-.3.7-.4,1,0,.2,0,.3-.2.5,0,.2-.2.6-.2.9s0,.4,0,.5c0,.2,0,.6-.2,1v3.6h0Z"></path>
  <path class="cls-1" d="M457.7,93.4c-6.3-24.4-27.4-41.9-51.4-42.5h0c-5,0-9.9.5-14.7,1.7h0c-14,3.6-25.9,12.7-33.1,25.2-7.2,12.9-9.1,28.1-5.3,42.3,6.4,25,28.1,42.5,52.6,42.5s9.1-.6,13.6-1.7c29.4-7.5,46.3-37.2,38.5-67.6M429.5,122.6c-3.6,6.4-9.7,11.1-16.8,12.9-2.3.6-4.6.9-7,.9-12.6,0-23.4-9.1-26.9-22.7-4.2-16.6,3.8-31.5,19.2-35.4,2.3-.6,4.6-.9,7-.9,12.6,0,23.4,9.1,26.9,22.7,2.1,7.5,1.2,15.6-2.4,22.5h0Z"></path>
  <path class="cls-1" d="M305.5,93.4c-6.2-24.4-27.4-41.9-51.4-42.5h0c-5,0-9.9.5-14.7,1.7h0c-14,3.6-25.9,12.7-33,25.2-7.2,12.9-9.1,28.1-5.3,42.3,6.4,25,28.1,42.5,52.7,42.5s9.1-.6,13.6-1.7c29.4-7.5,46.3-37.2,38.5-67.6M277.3,122.6c-3.6,6.4-9.7,11.1-16.8,12.9-2.3.6-4.6.9-7,.9-12.6,0-23.4-9.1-26.9-22.7-4.2-16.6,3.8-31.5,19.2-35.4,2.3-.6,4.6-.9,7-.9,12.6,0,23.4,9.1,26.9,22.7,2.1,7.5,1.2,15.6-2.4,22.5h0Z"></path>
  <path class="cls-1" d="M338.3,50.9l-26.4,1.1,6.4,76.9c2.1,25.4-2.6,43.9-14.4,56.5-5.1,5.3-11.2,9.6-18,12.6l3.9,26.1c19.5-7.8,33.5-17.6,42.6-33.9,9.6-17.1,14.4-37.9,12.2-63.8l-6.4-75.4h.1Z"></path>
  <path class="cls-1" d="M140.6,50.9h-1.5c-3.7.2-7.3.9-10.9,2-8.9-26-23.6-37.2-47.9-37.2s-25.1,4.2-38.2,24.2c-2.4,3.7-4.6,7.6-6.4,11.6l-4.8,10.2,1.3-32.8-27.1-1.1L0,155.9l26.6,4.9,31.1-91.3c2.8-8.7,12.1-26.7,22.7-26.7s17.1,0,24,24.6c-5.1,4.9-9.6,10.4-13.4,16.4-16.2,23.8-18.8,45.6-18.8,45.6-1.6,10.8.1,20.9,5,28.5,5.8,9,15.3,13.9,26.9,13.9s27.1-10.7,32.7-27.1c1.5-4.5,2.3-9.2,2.4-14v-7.2c-.1,0-.8-11.8-.8-11.8-.6-7.2-1.2-14-2-20.2l-.3-2.4c-.4-3.5-.8-6.8-1.3-9.8,1.5-.2,2.9-.3,4.4-.2,7,.5,11.7,2.8,15.8,9.3,5,7.9,12.3,34.5,12.4,70.5h27.2c-.2-64.5-18.3-107.9-53.9-107.9M112,131.9c-.3,2.8-1.2,5.4-2.5,7.9-.4.7-2.5,4.3-4.6,5.1-.5.2-1.1.3-1.7.3-1.3,0-2.5-.6-3.2-1.7-2-3.1-2.1-15.6,2.3-25.4l.3-.8c0-.2.5-1.3,1.3-2.9,1.8-4.3,4-8.5,6.6-12.4.1,1.6.3,3.1.4,4.7l1.1,19c.1,2.1.1,4.2,0,6.3"></path>
</svg>
