<?xml version="1.0" encoding="UTF-8"?>
<svg id="Layer_2" data-name="Layer 2" xmlns="http://www.w3.org/2000/svg" viewBox="0 0 135 65.79">
  <defs>
    <style>
      .cls-1 {
        fill: #fff;
      }

      .cls-2 {
        opacity: .8;
      }
    </style>
  </defs>
  <g id="Layer_1-2" data-name="Layer 1">
    <g class="cls-2">
      <path class="cls-1" d="M89.81,5.1c.06,.59,.23,1.17,.53,1.7,.18,.29,.35,.59,.59,.85h0c1.64,1.91,4.52,2.11,6.43,.47,.18-.15,.32-.29,.47-.47h0c.21-.26,.41-.53,.56-.82h0c.06-.15,.12-.26,.15-.38l.06-.12c0-.09,.09-.21,.12-.29,0-.06,0-.09,.06-.15,0-.06,.06-.18,.06-.26v-.15c0-.06,0-.18,.06-.29v-1.06c-.06-.59-.23-1.17-.53-1.7-.18-.29-.35-.59-.59-.85h0c-1.64-1.91-4.52-2.11-6.43-.47-.18,.15-.32,.29-.47,.47h0c-.21,.26-.41,.53-.56,.82h0c-.06,.15-.12,.26-.15,.38l-.06,.12c0,.09-.09,.21-.12,.29,0,.06,0,.09-.06,.15,0,.06-.06,.18-.06,.26v.15c0,.06,0,.18-.06,.29v1.06h0Z"/>
      <path class="cls-1" d="M134.38,27.42c-1.85-7.16-8.04-12.3-15.09-12.48h0c-1.47,0-2.91,.15-4.32,.5h0c-4.11,1.06-7.6,3.73-9.72,7.4-2.11,3.79-2.67,8.25-1.56,12.42,1.88,7.34,8.25,12.48,15.44,12.48s2.67-.18,3.99-.5c8.63-2.2,13.59-10.92,11.3-19.85m-8.34,8.6c-1.06,1.88-2.85,3.26-4.93,3.79-.68,.18-1.35,.26-2.06,.26-3.7,0-6.87-2.67-7.9-6.66-1.23-4.87,1.12-9.25,5.64-10.39,.68-.18,1.35-.26,2.06-.26,3.7,0,6.87,2.67,7.9,6.66,.62,2.2,.35,4.58-.7,6.61h0Z"/>
      <path class="cls-1" d="M89.7,27.42c-1.82-7.16-8.04-12.3-15.09-12.48h0c-1.47,0-2.91,.15-4.32,.5h0c-4.11,1.06-7.6,3.73-9.69,7.4-2.11,3.79-2.67,8.25-1.56,12.42,1.88,7.34,8.25,12.48,15.47,12.48s2.67-.18,3.99-.5c8.63-2.2,13.59-10.92,11.3-19.85m-8.4,8.6c-1.06,1.88-2.85,3.26-4.93,3.79-.68,.18-1.35,.26-2.06,.26-3.7,0-6.87-2.67-7.9-6.66-1.23-4.87,1.12-9.25,5.64-10.39,.68-.18,1.35-.26,2.06-.26,3.7,0,6.87,2.67,7.9,6.66,.62,2.2,.35,4.58-.7,6.61h0Z"/>
      <path class="cls-1" d="M99.33,14.94l-7.75,.32,1.88,22.58c.62,7.46-.76,12.89-4.23,16.59-1.5,1.56-3.29,2.82-5.28,3.7l1.15,7.66c5.73-2.29,9.84-5.17,12.51-9.95,2.82-5.02,4.23-11.13,3.58-18.73l-1.88-22.14h.03v-.03Z"/>
      <path class="cls-1" d="M41.28,14.94h-.44c-1.09,.06-2.14,.26-3.2,.59-2.61-7.63-6.93-10.92-14.06-10.92s-7.37,1.23-11.22,7.11c-.7,1.09-1.35,2.23-1.88,3.41l-1.41,2.99,.38-9.63-7.96-.32L0,45.77l7.81,1.44,9.13-26.81c.82-2.55,3.55-7.84,6.66-7.84s5.02,0,7.05,7.22c-1.5,1.44-2.82,3.05-3.93,4.82-4.76,6.99-5.52,13.39-5.52,13.39-.47,3.17,.03,6.14,1.47,8.37,1.7,2.64,4.49,4.08,7.9,4.08s7.96-3.14,9.6-7.96c.44-1.32,.68-2.7,.7-4.11v-2.11s-.23-3.46-.23-3.46c-.18-2.11-.35-4.11-.59-5.93l-.09-.7c-.12-1.03-.23-2-.38-2.88,.44-.06,.85-.09,1.29-.06,2.06,.15,3.44,.82,4.64,2.73,1.47,2.32,3.61,10.13,3.64,20.7h7.99c-.06-18.94-5.37-31.68-15.83-31.68m-8.43,23.75c-.09,.82-.35,1.59-.73,2.32-.12,.21-.73,1.26-1.35,1.5-.15,.06-.32,.09-.5,.09-.38,0-.73-.18-.94-.5-.59-.91-.62-4.58,.68-7.46l.09-.23c0-.06,.15-.38,.38-.85,.53-1.26,1.17-2.5,1.94-3.64,.03,.47,.09,.91,.12,1.38l.32,5.58c.03,.62,.03,1.23,0,1.85"/>
    </g>
  </g>
</svg>