<?xml version="1.0" encoding="UTF-8"?>
<svg xmlns="http://www.w3.org/2000/svg" id="Layer_1" data-name="Layer 1" version="1.1" viewBox="0 0 353 158.3">
  <defs>
    <style>
      .cls-1 {
        fill: #fff;
        stroke-width: 0px;
      }
    </style>
  </defs>
  <polygon class="cls-1" points="0 0 0 47.5 0 84.1 16.5 84.1 16.5 38.4 66.1 85.7 66.1 1.5 49.5 1.5 49.5 47.2 24.3 23.2 24.3 23.2 0 0"></polygon>
  <g>
    <path class="cls-1" d="M132.7,60.5c-4.9,4.9-10.8,7.3-17.7,7.3s-12.8-2.4-17.7-7.3c-4.9-4.9-7.3-10.8-7.3-17.7s2.5-12.7,7.3-17.7c4.8-4.9,10.7-7.3,17.7-7.3s12.8,2.5,17.7,7.3c4.9,4.9,7.4,10.8,7.4,17.7s-2.5,12.8-7.4,17.7M156.8,42.9c0-11.5-4.1-21.3-12.3-29.6-8.2-8.2-18-12.3-29.5-12.3s-21.3,4.1-29.5,12.3c-8.2,8.2-12.2,18.1-12.2,29.6s4.1,21.3,12.2,29.5c8.1,8.1,18,12.1,29.5,12.1s21.3-4,29.5-12.1,12.3-18,12.3-29.5"></path>
    <path class="cls-1" d="M192.3,40.9h-11.9v-22.7h9.3c4,0,8.1,1.2,10.2,3.3,2.2,2.3,3.3,4.9,3.3,7.9,0,6.3-4.8,11.6-10.9,11.6M205.1,54.2c4.7-1.8,7-3.6,9.9-7.6,3.5-4.9,5.2-10.1,5.2-15.7v-2.1c0-9.1-3-13.7-8-18.7-5-4.9-12.4-8.4-21.5-8.4h-26.8v82.3h16.6v-36.4l23.6,36.4h20.2l-19.1-29.8h-.1Z"></path>
  </g>
  <polygon class="cls-1" points="248.6 84 265.2 84 265.2 18.1 285.4 18.1 285.4 1.7 228.3 1.7 228.3 18.1 248.6 18.1 248.6 84"></polygon>
  <polygon class="cls-1" points="336.5 1.7 336.5 34.7 309 34.7 309 1.7 292.5 1.7 292.5 84 309 84 309 51 336.5 51 336.5 84 353 84 353 1.7 336.5 1.7"></polygon>
  <polygon class="cls-1" points="32.2 104.1 32.2 128.3 5.5 128.3 5.5 104.1 0 104.1 0 157.9 5.5 157.9 5.5 133.7 32.2 133.7 32.2 157.9 37.7 157.9 37.7 104.1 32.2 104.1"></polygon>
  <rect class="cls-1" x="47.2" y="104.1" width="5.5" height="53.8"></rect>
  <path class="cls-1" d="M89.9,135.6h19.1l-2.2,4.7c-.8,1.6-1.8,3.2-2.9,4.6-1.1,1.4-2.5,2.6-4,3.8-1.9,1.4-3.9,2.4-5.9,3-4.9,1.6-10.3,1.4-15-.6-2.6-1-4.9-2.7-7-4.8s-3.7-4.5-4.7-7c-1.1-2.6-1.6-5.4-1.6-8.3s.5-5.7,1.6-8.3c1-2.5,2.6-4.9,4.7-7s4.5-3.7,7-4.8,5.3-1.6,8.3-1.6,5.8.5,8.3,1.6c1.6.7,3.1,1.6,4.5,2.6l4-4c-.6-.4-1.1-.8-1.6-1.1-1.5-1-3.1-1.9-4.7-2.6-1.6-.7-3.3-1.2-5.1-1.6-1.7-.4-3.6-.5-5.5-.5h-2.3c-3,.2-5.7.9-8.2,1.9-3.2,1.3-6.2,3.4-8.8,6-2.7,2.8-4.8,5.8-6,8.9-1.3,3.2-2,6.7-2,10.5s.7,7.3,2,10.5,3.3,6.1,6,8.8c2.6,2.7,5.6,4.7,8.8,6,3.1,1.3,6.6,2,10.5,2s7.3-.7,10.5-2,6.2-3.3,8.9-6c2.9-2.9,5.1-6.3,6.4-10.1,1-3,1.6-6.2,1.6-9.7h-24.5v5h-.2,0Z"></path>
  <polygon class="cls-1" points="153.8 104.1 153.8 128.3 127.1 128.3 127.1 104.1 121.6 104.1 121.6 157.9 127.1 157.9 127.1 133.7 153.8 133.7 153.8 157.9 159.3 157.9 159.3 104.1 153.8 104.1"></polygon>
  <polygon class="cls-1" points="168.7 104.1 168.7 157.9 198.5 157.9 198.5 152.5 174.3 152.5 174.3 104.1 168.7 104.1"></polygon>
  <path class="cls-1" d="M231.2,120.7c1.5,3.5,3,7.3,4.5,11.4,1.5,4,3,7.8,4.5,11.2l.6,1.3h-21.1l.6-1.3c1.5-3.5,3-7.3,4.5-11.2,1.5-4,3.1-7.9,4.6-11.4l.9-2,.9,2.1h0ZM207.8,157.9h5.9l4.1-9.2h24.9l4.1,9.2h5.9l-22.5-52.8-22.5,52.8h0Z"></path>
  <polygon class="cls-1" points="296.8 104 296.8 143.2 260.4 105 260.4 158 265.9 158 265.9 118.7 302.3 157.4 302.3 104 296.8 104"></polygon>
  <path class="cls-1" d="M344.4,139.6c-1,2.6-2.4,4.9-4.4,7-2,2-4.3,3.5-6.9,4.4-2.6,1-5.4,1.4-8.5,1.4h-7.4v-42.8h7.2c3.1,0,6,.5,8.5,1.4,2.6,1,5,2.6,6.9,4.5s3.5,4.4,4.5,6.9c1,2.6,1.4,5.4,1.4,8.5s-.5,6-1.4,8.6M344.3,112.1c-2.6-2.6-5.6-4.6-8.9-5.9-2.8-1.2-6-1.8-9.3-2h-14.3v53.8h12.8c3.9,0,7.5-.7,10.8-2,3.4-1.3,6.4-3.3,8.9-5.8s4.2-5.3,5.4-8.6,1.8-6.8,1.8-10.4-.6-7.1-1.8-10.4c-1.2-3.3-3-6.2-5.3-8.6"></path>
</svg>
