<?xml version="1.0" encoding="UTF-8"?>
<svg xmlns="http://www.w3.org/2000/svg" width="159.121" height="41.859" viewBox="0 0 159.121 41.859">
  <g transform="translate(0.001 0.001)">
    <path d="M5.289.673c-10.566,0-17.518,7.773-17.517,19.817S-5.275,40.3,5.3,40.3s17.521-7.768,17.524-19.8S15.86.669,5.289.673m.006,7.993c6.259,0,8.816,5.8,8.816,11.825C14.11,26.5,11.554,32.3,5.294,32.3S-3.528,26.5-3.528,20.5c0-6.028,2.557-11.827,8.823-11.831M25.76,35.451a4.12,4.12,0,1,0,8.231,0V22.305c0-2.876,1.687-5.017,4.527-5.022s4.542,2.142,4.541,5.019v13.15a4.117,4.117,0,1,0,8.225,0l0-15.392c0-6.814-4.535-9.793-10.222-9.8-3.54,0-5.757,1.106-7.075,3.192a4.41,4.41,0,0,0-4.1-2.669,4.125,4.125,0,0,0-4.12,4.32Zm29.3,0a4.12,4.12,0,1,0,8.231,0V26.069l.106.006,8.217,10.873c1.735,2.223,2.586,2.818,4.485,2.818a3.885,3.885,0,0,0,4.063-3.836c0-1.229-1.109-2.606-1.944-3.676l-6.915-8.831L75.727,19c1.951-1.927,2.907-2.881,2.907-4.366a3.854,3.854,0,0,0-4.011-3.843c-2,0-3.212,1.438-4.627,2.888L63.3,20.43l0-17.676a4.116,4.116,0,1,0-8.223-.006Zm48.973-7.47c2.636.006,4.015-.675,4.015-3.613,0-7.241-5.22-14.1-13.341-14.1-8.435,0-14.4,7.024-14.4,15.018,0,8.354,5.547,15.018,14.4,15.017,6.22,0,12.91-2.657,12.907-6.727a3.42,3.42,0,0,0-3.412-3.554c-1.908,0-4.383,2.621-8.445,2.616-5.27,0-6.579-2.9-6.579-4.651ZM89.184,22.3a5.33,5.33,0,0,1,10.642,0Zm21.549,13.149a4.117,4.117,0,1,0,8.224,0V22.3c0-2.878,1.686-5.011,4.534-5.011s4.531,2.13,4.531,5.011l0,13.149a4.116,4.116,0,1,0,8.223,0V20.066c0-6.822-4.537-9.8-10.231-9.8-3.525,0-5.746,1.119-7.062,3.192a4.45,4.45,0,0,0-4.106-2.667,4.118,4.118,0,0,0-4.12,4.313Z" transform="translate(12.227 1.556)" fill="#fff"></path>
    <path d="M2,.968A3.246,3.246,0,0,1-1.292,4.22,3.264,3.264,0,0,1-4.621.991a3.255,3.255,0,0,1,3.329-3.23A3.223,3.223,0,0,1,2,.968m-5.79.02A2.5,2.5,0,0,0-1.273,3.553,2.466,2.466,0,0,0,1.175.991a2.508,2.508,0,0,0-2.5-2.581A2.506,2.506,0,0,0-3.792.988M-1.8,2.65l-.749,0-.01-3.219a8.1,8.1,0,0,1,1.238-.1,1.724,1.724,0,0,1,1.1.252A.822.822,0,0,1,.111.269a.836.836,0,0,1-.665.769v.037c.312.1.471.35.573.785a2.914,2.914,0,0,0,.236.784l-.784,0a2.57,2.57,0,0,1-.259-.785c-.059-.334-.255-.491-.668-.488h-.352Zm.014-1.8h.351C-1.028.842-.692.7-.695.37c0-.294-.216-.49-.688-.487a1.727,1.727,0,0,0-.413.04Z" transform="translate(157.121 6.805)" fill="#fff"></path>
  </g>
</svg>
