<?xml version="1.0" encoding="UTF-8"?>
<svg xmlns="http://www.w3.org/2000/svg" id="Layer_1" viewBox="0 0 237.01 155.53">
  <defs>
    <style>.cls-1{fill:#fff;stroke-width:0px;}</style>
  </defs>
  <path class="cls-1" d="M162.91,124.92c-1.7-.19-3.36-.66-4.89-1.4-.66-.38-.73-.64-.48-1.42.71-2.27,3.27-17.96,3.34-18.16.23-.72.68-1.02,1.37-.78,1.56.4,3.04,1,4.44,1.82.59.33.81,1.05.54,1.66-1.45,5.71-2.54,11.49-3.27,17.34-.05.71-.26.9-1.02.93"></path>
  <path class="cls-1" d="M149.06,17.99c-1.25-2.15-4.5-7.16-5.29-8.15-.45-.55-1.71-1.59-1.59-2.37.19-1.25,3.48-3.49,4.55-3.48.9.03,1.13.59,1.58,1.31.67,1.11,4.86,7.2,6.09,9.29.62,1.07,1.26,2.15,1.94,3.2.43.69,2.15,2.13,1.76,2.92-.76,1.59-3.82,2.56-4.98,2.66-1.45.12-3.24-4.05-4.03-5.4"></path>
  <path class="cls-1" d="M192.39,20.49c-.8-.03-3.79-.93-4.05-1.9-.19-.71.88-2.04,1.21-2.66,1.04-1.96,8.05-14.76,8.18-15.05.75-1.45,1.64-.83,2.8-.05.8.54,2.8,1.66,2.96,2.71.09.66-.45,1.23-.78,1.76-1.71,2.73-6.33,10.23-7.47,12.01-.47.73-1.76,3.32-2.85,3.18-1.04-.05.47.05,0,0"></path>
  <path class="cls-1" d="M137.47,82.41c-.26-.85-.73-1.12-1.33-.66-2.91,2.23-6,4.22-9.26,5.94-.28.14-.42.43-.36.74.26,1.64.74,3.25,1.47,4.76.17.36.59.52.95.34.03,0,.07-.03.1-.05l.09-.05c1.51-1.04,3.01-2.07,4.53-3.1,1.66-1.19,3.39-2.28,5.17-3.29.61-.28.97-.59.62-1.25-.79-1.05-1.45-2.2-1.99-3.41"></path>
  <path class="cls-1" d="M134.16,46.41c-3.15-1.19-6.37-2.15-9.58-3.2-1.02-.33-2.49-1.26-3.08.1-.36.83-1.12,3.29-.62,4.06.61.95,3.65,1.54,4.67,1.87,1.61.52,3.55,1.04,5.09,1.71,1.57.71,2.08.62,3.01-.85.43-.68,1.71-3.27.48-3.74-.43-.17.33.12,0,0"></path>
  <path class="cls-1" d="M233.64,38.69c-.02.35-.26.64-.6.73-5.04,1.66-9.95,3.67-14.7,6.02-.9.43-1.16.4-1.73-.35-.86-1.31-1.54-2.75-1.97-4.27-.21-.59,0-.9.62-1.13,3.69-1.33,14.33-5.9,16.07-6.56.92-.35,1.45-.07,1.66.9.33,1.54.55,3.1.66,4.67"></path>
  <path class="cls-1" d="M210.11,116.09c.19-.23.35-.48.48-.76.24-.54.14-.85-.29-1.35-1.59-1.99-3.03-4.1-4.31-6.3-1.8-2.84-3.44-5.74-5.02-8.68-.19-.38-.66-.54-1.04-.35-1.44.66-2.86,1.42-4.2,2.25-.57.33-.76,1.07-.43,1.64.02.03.03.07.05.09,2.56,3.7,4.74,8.13,7.18,11.88.85,1.3,1.54,2.65,2.27,4,.59,1.09,1.37,1.38,2.18.73,1.14-.93,2.2-1.99,3.15-3.13"></path>
  <path class="cls-1" d="M217.51,75.56c.19-.92.85-3.93,1.02-4.39.35-.93.78-1.16,1.73-.83,1.23.43,11.69,2.96,15.69,3.7,1,.19,1.26.54.9,1.45-.52,1.42-1.13,2.79-1.82,4.12-.36.66-.67.81-1.26.55-1.83-.8-13.44-3.13-15.15-3.46-.81-.15-1.26-.48-1.11-1.14"></path>
  <path class="cls-1" d="M207.15,30.49c-1.02-.76-1.97-1.61-2.84-2.56-.48-.48-.48-1.28,0-1.76.07-.05.12-.12.21-.16,1.75-1.19,7.84-7.11,9.5-8.46,1.02-.81,1.99-1.71,2.85-2.68.8-.86,1.31-.85,1.95.09.8,1.18,1.52,2.4,2.15,3.68.33.66.33.81-.12,1.14-.45.33-4.01,3.06-5.03,4.08-.55.55-7.87,7.22-8.68,6.63"></path>
  <path class="cls-1" d="M212.44,86.8c.97.1,7.25,5.59,8.56,6.76,1.23,1.09,2.51,2.13,3.86,3.08.66.47.69.73.02,1.33-1.13,1.04-1.82,2.51-3.11,3.34-.59.38-.97.26-1.51-.21-2.2-1.94-9.95-7.77-11.28-8.6-1.09-.69-1.14-1.56-.1-2.32,1.14-.85,2.47-3.65,3.58-3.36"></path>
  <path class="cls-1" d="M180.72,120.09c-.88.07-1.18-.24-1.14-1.11.22-3.7.03-7.4-.55-11.06-.57-2.63-.16-2.87,3.15-2.83.73,0,3.11-.76,3.27.79.21,3.86.59,8.39.54,12.27,0,1.21,0,1.26-1.16,1.47-.19.03-2.92.38-4.12.47"></path>
  <path class="cls-1" d="M135.06,33.17c-1.38-1.3-7.67-5.09-6.47-6.66.54-.72,2.58-2.63,3.04-3.16.62-.73,1.63.55,2.11.97.71.61,5.31,3.7,6.69,4.98,1.01.93,3.43,2.15,2.42,3.58-.86,1.25-2.02,3.6-3.55,3.76-1.45.14-3.31-2.59-4.24-3.48"></path>
  <path class="cls-1" d="M139.59,108.24c-.31-.36-.33-.9-.03-1.28,1.42-1.97,2.7-4.03,3.81-6.19.99-1.71,1.99-3.43,3.03-5.12.47-.76.99-.8,1.66-.23,1.25.86,2.41,1.87,3.43,2.99.54.8.47,1.05-.22,1.73-1.26,1.23-6.83,11.69-8.04,10.97-1.28-.86-2.49-1.82-3.65-2.86"></path>
  <path class="cls-1" d="M169.4,3.7c1.26-.15,2.54-.17,3.81,0,1.54.09,1.85.43,1.94,1.96.16,2.8.19,7.28.43,10.08.15,1.8-.42,1.78-2.25,1.94-1.18.1-3.84.83-4.29-.71-.12-1.06-.12-2.11.02-3.17,0-1.23-.05-2.46-.17-3.68-.12-1.35-1.42-6,.52-6.4"></path>
  <path class="cls-1" d="M219.1,55.06c-.05-.97.33-1.31,1.25-1.31,3.2-.12,6.4-.42,9.58-.86.86-.21,1.37.35,1.28,1.23-.12,1.42.15,2.8-.03,4.22-.12.8-.36,1-1.11.98-3.16.14-6.33.45-9.46.95-.45.12-.92-.16-1.04-.61,0-.03-.02-.09-.02-.14-.09-.43-.38-3.43-.43-4.48"></path>
  <path class="cls-1" d="M121.15,65.23c1.04-.97,3.2-.86,4.48-.99,1.76-.15,4.53-1,6.26-.31.93.38.83,2.13.85,3.04.03,1.28-.21,1.92-1.42,2.25-2.47.56-4.96.9-7.49,1.04-.92.09-1.95.34-2.49-.57-.54-.92-1.05-3.68-.19-4.48"></path>
  <path class="cls-1" d="M177.91,82.41c-.66.07-1.33.1-1.99.1-11.59-.1-20.91-9.58-20.81-21.18.09-10.71,8.22-19.62,18.87-20.71.66-.07,1.33-.1,1.99-.1,11.59.09,20.93,9.55,20.85,21.14-.07,10.73-8.22,19.67-18.89,20.74M214.9,57.81c-1.75-20.22-18.67-35.73-38.96-35.73-1.25,0-2.51.05-3.76.18-10.38.97-19.91,6.07-26.5,14.15-13.86,16.87-11.42,41.76,5.45,55.62,6.97,5.73,15.69,8.89,24.72,8.98,1.25,0,2.51-.05,3.76-.17,21.61-2.18,37.38-21.42,35.31-43.03"></path>
  <path class="cls-1" d="M40.17,138.62l-.1-.19c-6.8-14.2-10.64-29.63-11.26-45.36l-.09-1.85c-.19-22.09,6.02-42.14,6.31-43.91.24-3.17-8.49-3.53-8.77-3.53h-.09c-3.3,0-6.36,1.75-8.04,4.6-2.2,3.61-5.07,13.16-6.05,25.59-2.94,37.32,4.5,57.12,6.16,61.14,4.24,9.5,6.49,10.24,7.56,10.4.27.05.57.07.85.07,5.21-.07,10.76-3.06,12.58-3.91,1.87-.88.95-3.03.95-3.03"></path>
  <path class="cls-1" d="M125.43,105.54c-2.09-5.22-3.79-10.59-5.1-16.05,0-.05-.02-.09-.03-.12-.09-.3-.19-.61-.28-.9-.02-.07-.03-.14-.05-.21-.22-1.04-.42-2.08-.61-3.11-3.8-18.22-3.98-37.02-.5-55.31,0-.09,0-.19.02-.28.29-1.54-.61-1.92-1.02-2.02h-.03c-1.71-.03-3.41.02-5.12.17-.21.02-.38.03-.59.05l-.33.03c-3.44.23-6.83.93-10.07,2.09-.71.29-1.23.95-1.35,1.71-2.32,15.88-2.39,32.02-.19,47.94.81,7.28,2.23,14.48,4.26,21.52.86,3.18,1.45,4.95,1.45,4.95.42,1.35.86,2.73,1.33,4.13.29.92,1.16,1.52,2.11,1.52,3.98-.09,11.92-1.25,15.26-3.41.88-.59,1.23-1.71.81-2.7"></path>
  <path class="cls-1" d="M150.77,124.95l-14.5-7.87c-.43-.24-.99-.1-1.26.31-.14.21-.26.38-.3.43-21.97,32.59-47.77,14.38-51.87,11.16-11.11-8.91-19.12-22.72-19.74-33.63,0-.05-.04-.1-.09-.14,0,0,31.73-12.42,28.6-53.84C89.17,5.1,40.31-2.69,14.57,13.63,5.44,19.42-.07,29.51,0,40.32c.05,6.45,2.13,13.15,9.86,15.38,8.01-66.15,112.41-20.53,31.97,30.92-.74.47-1.12,1.33-1,2.2,9.31,64.09,53.02,73.92,82.5,62.75,12.01-4.83,21.87-13.84,27.75-25.38.26-.38.17-.92-.21-1.18-.03-.02-.05-.03-.09-.05"></path>
</svg>
