<?xml version="1.0" encoding="UTF-8"?>
<svg xmlns="http://www.w3.org/2000/svg" id="Layer_1" data-name="Layer 1" version="1.1" viewBox="0 0 1218.9 266.2">
  <defs>
    <style>
      .cls-1 {
        fill: #fff;
        stroke-width: 0px;
      }
    </style>
  </defs>
  <path class="cls-1" d="M1216.5,174.1c1.5,0,2.6,1.5,2.1,3-8.7,28.7-29.6,52.2-68.4,52.2s-75.9-34-75.9-89.1,26.7-90.6,77.6-90.6,62.8,29.7,67,53.1c.3,1.4-.8,2.7-2.2,2.7h-15.8c-1,0-1.9-.7-2.1-1.6-5.6-18.7-18.8-36-47.4-36s-56.3,29.8-56.3,71.8,19.6,71.7,55.1,71.7,39.8-12.5,48.5-35.6c.3-.9,1.2-1.5,2.1-1.5h15.7Z"></path>
  <path class="cls-1" d="M391.9,206.9l97.3-121.5c1.2-1.5,0-3.7-1.7-3.7h-18c-.7,0-1.3.3-1.7.8l-100.3,124.4c-.3.4-.5.9-.5,1.4v14.3c0,1.2,1,2.3,2.2,2.3h133.3c1.2,0,2.2-1,2.2-2.3v-13.6c0-1.2-1-2.3-2.2-2.3h-110.7v.2Z"></path>
  <path class="cls-1" d="M497.9,71.9c1.2,0,2.2-1,2.2-2.3v-13.6c0-1.2-1-2.3-2.2-2.3h-123c-1.2,0-2.2,1-2.2,2.3v13.6c0,1.2,1,2.3,2.2,2.3h123Z"></path>
  <path class="cls-1" d="M794.7,179.8v-95.7c0-1.2-1-2.3-2.2-2.3h-15.4c-1.2,0-2.2,1-2.2,2.3v102.2c0,28.9,11.7,41,36.2,41s14.5-.5,20.6-2.5c.9-.3,1.5-1.2,1.5-2.1v-12.3c0-1.4-1.3-2.5-2.7-2.2-4.8,1-10.3,1.2-14.5,1.2-16.7,0-21.1-10.3-21.1-29.6h-.2Z"></path>
  <path class="cls-1" d="M835.8,69.5v-13.4c0-1.2-1-2.3-2.2-2.3h-38.8V2.3c0-1.2-1-2.3-2.2-2.3h-15.4c-1.2,0-2.2,1-2.2,2.3v51.5h-38.8c-1.2,0-2.2,1-2.2,2.3v13.4c0,1.2,1,2.3,2.2,2.3h97.5c1.2,0,2.2-1,2.2-2.3h0Z"></path>
  <path class="cls-1" d="M1024.1,130c0-34.5-17.7-80.5-72.5-80.5s-65.3,26.9-73.4,63.8c-.3,1.4.8,2.7,2.2,2.7h15.7c1.1,0,2-.8,2.2-1.8,5.9-28.1,22.2-46.8,52.7-46.8s51.7,27.6,52.3,58.5h-125.2c-1.1,0-2.1.9-2.2,2-.4,4.1-.6,8.4-.6,12.7,0,44,22,88.6,74.8,88.6s61.2-24.5,69.2-46.4c.5-1.5-.5-3.1-2.1-3.1h-15.6c-.9,0-1.6.5-2,1.3-6.9,14.5-18.9,30.1-48.5,30.1s-55-27-55.6-68.6h126.1c1.2,0,2.2-.9,2.2-2.1.2-3.4.2-6.8.2-10.4h0Z"></path>
  <path class="cls-1" d="M670.2,53.8c-1.2,0-2.2,1-2.2,2.3v83.7c0,49.2-14.7,70.6-52.2,70.6s-41.1-24-41.1-49.1V56.1c0-1.2-1-2.3-2.2-2.3h-15.2c-1.2,0-2.2,1-2.2,2.3v109.7c0,51.2,29.9,63.5,57.3,63.5s48-13.6,55.6-34v27.5c0,1.2,1,2.3,2.2,2.3h15.4c1.2,0,2.2-1,2.2-2.3V56.1c0-1.2-1-2.3-2.2-2.3h-15.4,0Z"></path>
  <path class="cls-1" d="M104,261.1v-109.7c0-1.8-.9-3.5-2.5-4.4L7.5,92.1c-3.4-2-7.5.5-7.5,4.4v109.7c0,1.8,1,3.5,2.5,4.4l94,54.9c3.4,2,7.5-.5,7.5-4.4h0Z"></path>
  <path class="cls-1" d="M88.3,72.7v-28.8c0-3.9,4.2-6.3,7.5-4.4l94,54.9c1.5.9,2.5,2.6,2.5,4.4v109.7c0,3.9-4.2,6.3-7.5,4.4l-24.6-14.4c-1.5-.9-2.5-2.6-2.5-4.4v-75.1c0-1.8-.9-3.5-2.5-4.4l-64.3-37.5c-1.5-.9-2.5-2.6-2.5-4.4h0Z"></path>
  <path class="cls-1" d="M132.5,17.8c0-3.9,4.2-6.3,7.5-4.4l94,54.9c1.5.9,2.5,2.6,2.5,4.4v109.7c0,3.9-4.2,6.3-7.5,4.4l-24.6-14.4c-1.5-.9-2.5-2.6-2.5-4.4v-75.1c0-1.8-.9-3.5-2.5-4.4l-64.3-37.7c-1.5-.9-2.5-2.6-2.5-4.4v-28.6h0Z"></path>
  <path class="cls-1" d="M44.1,99v-28.8c0-3.9,4.2-6.3,7.5-4.4l94,54.9c1.5.9,2.5,2.6,2.5,4.4v109.7c0,3.9-4.2,6.3-7.5,4.4l-24.6-14.4c-1.5-.9-2.5-2.6-2.5-4.4v-75.1c0-1.8-.9-3.5-2.5-4.4l-64.3-37.5c-1.5-.9-2.5-2.6-2.5-4.4h0Z"></path>
</svg>
