<?xml version="1.0" encoding="UTF-8"?>
<svg id="Layer_2" data-name="Layer 2" xmlns="http://www.w3.org/2000/svg" viewBox="0 0 370.91 89.48">
  <defs>
    <style>
      .cls-1 {
        fill: #e1e89e;
      }
    </style>
  </defs>
  <g id="Layer_1-2" data-name="Layer 1">
    <path class="cls-1" d="M91.79,17.49c-1.06,1.35-2.48,2.24-2.48,3.94,0,3.97-.09,16.48-.09,20.85-2.72-1.7-3.94-2.55-7.08-2.55-4.39,0-6.78,2.21-11.88,2.21-9.35,0-17.79-6-19.55-16.94,0,0,0,0,0,0-.2-1.27-.42-2.84-.42-4.27,0-1.15,.11-2.29,.29-3.41,.77-4.91,3.35-9.4,7.21-12.54,3.85-3.13,8.53-4.78,13.48-4.78,5.75,0,11.71,1.63,16.66,6.71l-11.85,7.13c-.49-4.45-.4-11.42-5.1-11.48-3.55-.04-5.31,2.88-5.31,6.31,0,4.1,0,8.01-.02,11.91,0,1.2-.01,9.7-.01,12.94,0,3.94,2.51,5.7,5.24,5.7s5.11-1.25,5.11-5.97c0-.58,.02-7.6,.02-10.38,0-3.24-1.16-3.55-3.19-5.38,.65,0,17.45-.01,18.98-.01Z"/>
    <path class="cls-1" d="M133.96,34.28c0,4.59-4.24,7.87-9.13,7.87-7.28,0-8.77-8.95-10.14-14.8-.57-2.44-1.98-3.5-5.26-3.5h-.12c0,3.11-.02,8.95-.02,11.96,0,3.24,.75,2.98,2.73,5.38-.65,0-6.26,.02-6.26,.02-1.18,0-10.73,0-12.26,0,1.27-1.64,2.71-2.53,2.71-4.4,.05-9.67,.1-20.06,.11-29.73,0-3.24-.89-3.4-2.73-5.61,.65,0,9.9,0,13.11,0,2.32-.33,5.53-.7,8.69-.71,2.28,0,5.27,.41,6.95,.94,9.03,2.83,11.13,12.73,3.86,18.84-2.61,2.19-8.28,3.07-11.14,3.07,4.88,1.39,4.69,8.03,9.97,8.03,4.18,0,5.66-3.92,5.97-5.4,.02-.11,.17-.21,.17-.21,1.46,2.18,2.8,5.28,2.8,8.26Zm-18.37-17.81c0-2.4-.03-7.02-.03-9.58,0-2.69-1.04-4.23-3.36-4.23-2.1,0-2.8,1.99-2.8,2.93-.03,5.88-.06,10.1-.08,16.19h2.47c2.76,0,3.81-1.01,3.81-5.31Z"/>
    <path class="cls-1" d="M217.97,35.79c0,2.99,1.61,4.24,2.73,5.45,0,0-13.79,0-14.41,.01-.99-1.21-18.74-33.13-18.86-33.23-.05,8.95-.08,18.3-.1,27.15,0,3.24,1.35,3.86,3.19,6.07-.25,0-8.38,0-8.99,0,1.27-1.64,2.71-2.53,2.71-4.4,.05-9.67,.09-20.06,.11-29.73,0-3.24-.89-3.4-2.73-5.61h17.93l15.41,26.59s.03-19.05,.03-20.29c0-3.24-1.12-4.09-2.96-6.3,.25,0,8.15-.01,8.76-.01-1.27,1.64-2.71,2.53-2.71,4.4q-.05,9.44-.11,29.89Z"/>
    <path class="cls-1" d="M240.01,35.63c0,3.24,.75,3.21,2.73,5.61-.65,0-3.93,0-6.26,0h0c-1.18,.01-2.21,0-3.26,0-1.07,0-1.95,0-3.11,0h0c-.11,0-.21,0-.32,0-.87,0-4.04,0-5.57,0,1.27-1.64,2.71-2.53,2.71-4.4,.05-9.67,.09-20.06,.11-29.73,0-3.24-.89-3.4-2.73-5.61,.65,0,5.79-.02,5.79-.02,1.18,0,11.19,0,12.72,0-1.08,1.42-2.71,2.53-2.71,4.4-.05,9.67-.1,20.06-.11,29.73Z"/>
    <path class="cls-1" d="M285.99,1.97c-.01,1.38-.34,12.26-.41,13.6h-.51c-1.25-2.05-5.26-11.73-8.56-11.73-.37,0-3.7,.04-3.89,.05,0,.75-.05,1.23-.05,1.99-.05,9.67-.09,20.06-.11,29.73,0,3.24,.75,3.21,2.73,5.61-.65,0-3.93,0-6.26,0h0c-1.18,.01-1.75,0-2.8,0-1.07,0-1.95,0-3.11,0h0c-.11,0-.21,0-.32,0-.87,0-4.5,0-6.03,0,1.27-1.64,2.71-2.53,2.71-4.4,.05-9.67,.1-20.06,.11-29.73,0-1.64,0-2.49,0-3.22-.82-.01-3.46-.04-3.76-.04-3.3,0-7.54,9.68-8.79,11.73h-.5c-.06-1.33-.39-12.22-.41-13.6,0-.69,0-.19,0-.97,2.55,.5,8.4,.48,10.21,.48,3.18,0,4.21,0,6.67,0h.3c.36,0,.77,0,1.23,0,0,0,0,0,0,0,.84,0,1.96,0,3.14,0,0,0,0,0,0,0,3.96,0,4.69,0,8.43,0,1.81,0,7.43,.01,9.98-.48,0,.79,0,.29,0,.97Z"/>
    <path class="cls-1" d="M321.78,36.23c-.01,2.02,.09,4.1,.09,6.25-2.07-1.27-5.44-1.24-7.44-1.23-4.36,.02-7.94,.02-11.83,0v-.03c-.71,0-1.43,0-2.08,0h0c-1.18,.01-1.74,0-2.8,0-1.07,0-1.95,0-3.11,0h0c-.11,0-.21,0-.32,0-.87,0-4.5,0-6.03,0,1.27-1.64,2.71-2.53,2.71-4.4,.05-9.67,.09-20.06,.11-29.73,0-3.24-.89-3.4-2.73-5.61,.65,0,6.26-.02,6.26-.02,1.04,0,8.6,0,11.41,0,2.67,0,5.35,0,8.41,.01,2,0,5.38,.04,7.44-1.23,0,2.16-.11,3.77-.09,5.79,0,.69-.03,7.23-.03,7.88-1.51-2.25-6.54-9.86-9.12-9.86-3.37,0-2.49-.06-5.86-.02-.36,0-1.2,0-2.04,.01-.34,.54-.56,1.13-.56,1.82-.02,3.7-.04,7.5-.06,11.33,.03,0,.05-.01,.08-.02,2.93,.03,4.61-.01,6.2-.01l5.4-4.67,.03,12.48-5.58-5.4c-1.43,0-4.64-.05-6.13-.01-.02,5.4-.04,10.81-.05,16.02,0,1.57,.17,2.38,.58,3.06,.88,0,1.76,0,2.13,.01,3.37,.05,2.49-.02,5.86-.02,2.59,0,7.62-7.84,9.12-10.09,0,.65,.03,6.96,.03,7.64Z"/>
    <path class="cls-1" d="M41.51,64.49c-1.06,1.35-2.48,2.24-2.48,3.94,0,3.97-.09,16.48-.09,20.85-2.72-1.7-3.94-2.55-7.08-2.55-4.39,0-6.78,2.21-11.88,2.21-9.35,0-17.79-6-19.55-16.94,0,0,0,0,0,0-.2-1.27-.42-2.84-.42-4.27,0-1.15,.11-2.29,.29-3.41,.77-4.91,3.35-9.4,7.21-12.54,3.85-3.13,8.53-4.78,13.48-4.78,5.75,0,11.71,1.63,16.66,6.71l-11.85,7.13c-.49-4.45-.4-11.42-5.1-11.48-3.55-.04-5.31,2.88-5.31,6.31,0,4.1,0,8.01-.02,11.91,0,1.2-.01,9.7-.01,12.94,0,3.94,2.51,5.7,5.24,5.7s5.11-1.25,5.11-5.97c0-.58,.02-7.6,.02-10.38,0-3.24-1.16-3.55-3.19-5.38,.65,0,17.45-.01,18.98-.01Z"/>
    <path class="cls-1" d="M84.67,81.28c0,4.59-4.24,7.87-9.13,7.87-7.28,0-8.77-8.95-10.14-14.8-.57-2.44-1.98-3.5-5.26-3.5h-.12c0,3.11-.02,8.95-.02,11.96,0,3.24,.75,2.98,2.73,5.38-.65,0-6.26,.02-6.26,.02-1.18,0-10.73,0-12.26,0,1.27-1.64,2.71-2.53,2.71-4.4,.05-9.67,.1-20.06,.11-29.73,0-3.24-.89-3.4-2.73-5.61,.65,0,9.9,0,13.11,0,2.32-.33,5.53-.7,8.69-.71,2.28,0,5.27,.41,6.95,.94,9.03,2.83,11.13,12.73,3.86,18.84-2.61,2.19-8.28,3.07-11.14,3.07,4.88,1.39,4.69,8.03,9.97,8.03,4.18,0,5.66-3.92,5.97-5.4,.02-.11,.17-.21,.17-.21,1.46,2.18,2.8,5.28,2.8,8.26Zm-18.37-17.81c0-2.4-.03-7.02-.03-9.58,0-2.69-1.04-4.23-3.36-4.23-2.1,0-2.8,1.99-2.8,2.93-.03,5.88-.06,10.1-.08,16.19h2.47c2.76,0,3.81-1.01,3.81-5.31Z"/>
    <path class="cls-1" d="M167.09,48.45c-.32,.41-.75,.66-.88,.78-1.09,1.05-4,5.3-6.52,10.56-4.53,9.48-10,22.24-11.47,25.57-.32,.73-1.18,2.87-1.77,3.79-1.52-3.16-1.81-4.7-2.44-6.16-3.43-7.92-8.71-17.07-12.11-25.01-.88-2.05-1.07-2.27-1.92-4.32-1.05-2.55-2.95-3.89-4.36-5.21,.84,.04,18.56,0,20.74,0-1.13,1.43-2.05,3.54-1.45,4.91,2.24,5.1,3.91,9.66,6.11,14.78,.12,.27,.69,1.09,.97,1.62,1.14-2.29,4.4-8.95,4.91-10.42,1.04-3.02,1.21-7.24-.75-10-.14-.19-.81-.6-1.13-.88h6.45c1.4,0,4.23,.16,5.62,0Z"/>
    <path class="cls-1" d="M201.65,83.23c-.01,2.02,.09,4.1,.09,6.25-2.07-1.27-5.44-1.24-7.44-1.23-4.36,.02-7.94,.02-11.83,0v-.03c-.71,0-1.43,0-2.08,0h0c-1.18,.01-1.75,0-2.8,0-1.07,0-1.95,0-3.11,0h0c-.11,0-.21,0-.32,0-.87,0-4.5,0-6.03,0,1.27-1.64,2.71-2.53,2.71-4.4,.05-9.67,.09-20.06,.11-29.73,0-3.24-.89-3.4-2.73-5.61,.65,0,6.26-.02,6.26-.02,1.04,0,8.6,0,11.41,0,2.67,0,5.35,0,8.41,.01,2,0,5.38,.04,7.44-1.23,0,2.16-.11,3.77-.09,5.79,0,.69-.03,7.23-.03,7.88-1.51-2.25-6.54-9.86-9.13-9.86-3.37,0-2.49-.06-5.86-.02-.36,0-1.2,0-2.04,.01-.34,.54-.56,1.13-.56,1.82-.02,3.7-.04,7.5-.06,11.33,.03,0,.05-.01,.08-.02,2.93,.03,4.61-.01,6.2-.01l5.4-4.67,.03,12.48-5.58-5.4c-1.43,0-4.64-.05-6.13-.01-.02,5.4-.04,10.81-.04,16.02,0,1.57,.17,2.38,.58,3.06,.88,0,1.76,0,2.13,.01,3.37,.05,2.5-.02,5.86-.02,2.59,0,7.62-7.84,9.13-10.09,0,.65,.03,6.96,.03,7.64Z"/>
    <path class="cls-1" d="M244.77,48.45c-1.55,1.2-5.65,5.98-6.76,7.53-2.98,4.15-6.8,11.62-6.8,11.62-.01,1.31,0,1.93,0,1.93-.02,4.63-.03,8.56-.04,13.03,0,3.24,.75,3.21,2.73,5.61-.65,0-3.93,0-6.26,0h0c-1.18,.01-2.21,0-3.26,0-1.07,0-1.49,0-2.65,0h0c-.11,0-.21,0-.32,0-.87,0-4.5,0-6.03,0,1.27-1.64,2.71-2.53,2.71-4.4,.03-4.6,.05-8.31,.07-13-.08,.11-7.21-13.11-10.11-17.51-.76-1.15-2.87-3.65-4.46-4.83h21.52c-1.72,1.38-2.49,3.25-1.34,5.87,1.55,3.52,5.23,9.82,5.83,10.51,.98-1.61,3.46-5.99,4.05-7.25,1.79-3.82-.24-7.93-1.34-9.12,.53-.03,11.7,0,12.45,0Z"/>
    <path class="cls-1" d="M326.7,81.28c0,4.59-4.24,7.87-9.13,7.87-7.28,0-8.77-8.95-10.14-14.8-.57-2.44-1.98-3.5-5.26-3.5h-.12c0,3.11-.02,8.95-.02,11.96,0,3.24,.75,2.98,2.73,5.38-.65,0-6.26,.02-6.26,.02-1.18,0-10.73,0-12.26,0,1.27-1.64,2.71-2.53,2.71-4.4,.05-9.67,.09-20.06,.11-29.73,0-3.24-.89-3.4-2.73-5.61,.65,0,9.9,0,13.11,0,2.32-.33,5.53-.7,8.69-.71,2.28,0,5.27,.41,6.95,.94,9.03,2.83,11.13,12.73,3.86,18.84-2.61,2.19-8.28,3.07-11.14,3.07,4.88,1.39,4.69,8.03,9.97,8.03,4.18,0,5.66-3.92,5.97-5.4,.02-.11,.17-.21,.17-.21,1.46,2.18,2.8,5.28,2.8,8.26Zm-18.37-17.81c0-2.4-.04-7.02-.04-9.58,0-2.69-1.04-4.23-3.35-4.23-2.1,0-2.8,1.99-2.8,2.93-.03,5.88-.06,10.1-.08,16.19h2.47c2.76,0,3.81-1.01,3.81-5.31Z"/>
    <path class="cls-1" d="M370.91,67.92c0,15.64-13.92,20.27-21.02,20.68-1.45,.08-17.69-.03-19.98-.03,2.75-2.95,2.79-3.51,2.82-7.88,.06-8.05,.08-16.1,.07-24.16,0-3.77-.16-4.33-2.9-8.22,5.59,.92,12.94,.55,20.58,.55,7.02,0,20.42,3.53,20.42,19.06Zm-13.92,.12c0-14.56-6.17-16.86-10.81-16.86-.17,3.98-.6,28.73-.6,34.84,4.71,0,11.41-3.39,11.41-17.98Z"/>
    <path class="cls-1" d="M174.98,36.01v-14.06c0-4.82-1.38-9.39-3.99-13.14-2.61-3.76-6.36-6.28-10.46-7.03-.93-.17-1.63-.28-2.59-.28-1.19,0-2.24,.22-3.3,.41,0,0,0,0,0,0-9.13,1.72-14.14,9.95-14.14,19.07v15.04c0,3.16-.61,2.91-2.26,5.24h39c-1.65-2.33-2.27-2.08-2.26-5.24Zm-26.48-15.85v-.52c0-4.89,2.69-9.3,7.58-10.22,0,0,0,0,0,0,.57-.1,1.13-.22,1.77-.22,.51,0,.89,.06,1.39,.15,2.2,.4,4.21,1.75,5.61,3.77,1.4,2.01,2.14,4.46,2.14,7.05h-18.48Z"/>
    <path class="cls-1" d="M125.42,82.97v-14.06c0-4.82-1.38-9.39-3.99-13.14-2.61-3.76-6.36-6.28-10.46-7.03-.93-.17-1.63-.28-2.59-.28-1.19,0-2.24,.22-3.3,.41,0,0,0,0,0,0-9.13,1.72-14.14,9.95-14.14,19.07v15.04c0,3.16-.61,2.91-2.26,5.24h39c-1.65-2.33-2.27-2.08-2.26-5.24Zm-26.48-15.85v-.52c0-4.89,2.69-9.3,7.58-10.22,0,0,0,0,0,0,.57-.1,1.13-.22,1.77-.22,.51,0,.89,.06,1.39,.15,2.2,.4,4.21,1.75,5.61,3.77,1.4,2.01,2.14,4.46,2.14,7.05h-18.48Z"/>
    <path class="cls-1" d="M279.34,82.97v-14.06c0-4.82-1.38-9.39-3.99-13.14-2.61-3.76-6.36-6.28-10.46-7.03-.93-.17-1.63-.28-2.59-.28-1.19,0-2.24,.22-3.3,.41,0,0,0,0,0,0-9.13,1.72-14.14,9.95-14.14,19.07v15.04c0,3.16-.61,2.91-2.26,5.24h39c-1.65-2.33-2.27-2.08-2.26-5.24Zm-26.48-15.85v-.52c0-4.89,2.69-9.3,7.58-10.22,0,0,0,0,0,0,.57-.1,1.13-.22,1.77-.22,.51,0,.89,.06,1.39,.15,2.2,.4,4.21,1.75,5.61,3.77,1.4,2.01,2.14,4.46,2.14,7.05h-18.48Z"/>
  </g>
</svg>