<?xml version="1.0" encoding="UTF-8"?>
<svg id="Layer_2" data-name="Layer 2" xmlns="http://www.w3.org/2000/svg" viewBox="0 0 71.51 110">
  <defs>
    <style>
      .cls-1 {
        fill: #e1e89e;
      }

      .cls-2 {
        fill: #2b4748;
      }
    </style>
  </defs>
  <g id="Layer_1-2" data-name="Layer 1">
    <g>
      <path class="cls-1" d="M67.36,101.77V32.1c0-7.57-2.53-14.73-7.32-20.63C55.25,5.57,48.38,1.62,40.86,.44c-1.71-.27-2.98-.44-4.74-.44-2.19,0-4.12,.34-6.06,.64,0,0,0,0,0,0C13.33,3.35,4.15,16.26,4.15,30.57V101.77c0,4.96-1.11,4.57-4.15,8.23H71.51c-3.03-3.66-4.16-3.26-4.15-8.23Z"/>
      <path class="cls-2" d="M54.47,28.2c-.96,1.22-2.24,2.02-2.24,3.56,0,3.59-.08,14.89-.08,18.85-2.46-1.54-3.56-2.3-6.4-2.3-3.97,0-6.13,2.3-10.73,2.3-8.45,0-16.08-5.74-17.67-15.62,0,0,0,0,0,0-.18-1.15-.38-2.57-.38-3.86,0-1.04,.1-2.07,.26-3.08,.7-4.44,3.03-8.07,6.52-10.9,3.48-2.83,7.71-4.32,12.18-4.32,5.2,0,10.58,1.47,15.06,6.07l-10.71,6.45c-.44-4.02-.36-10.32-4.61-10.37-3.21-.04-4.8,2.6-4.8,5.7,0,3.71,0,6.81-.02,10.34,0,1.08-.01,8.77-.01,11.69,0,3.56,2.27,5.15,4.73,5.15s4.62-1.13,4.62-5.4c0-.53,.01-6.87,.02-9.38,0-2.93-1.05-3.21-2.88-4.86,.59,0,15.77-.01,17.15-.01Z"/>
      <path class="cls-2" d="M54.47,74.77c-.96,1.22-2.24,2.02-2.24,3.56,0,3.59-.08,14.89-.08,18.85-2.46-1.54-3.56-2.3-6.4-2.3-3.97,0-6.13,2.3-10.73,2.3-8.45,0-16.08-5.74-17.67-15.62,0,0,0,0,0,0-.18-1.15-.38-2.57-.38-3.86,0-1.04,.1-2.07,.26-3.08,.7-4.44,3.03-8.07,6.52-10.9,3.48-2.83,7.71-4.32,12.18-4.32,5.2,0,10.58,1.47,15.06,6.07l-10.71,6.45c-.44-4.02-.36-10.32-4.61-10.37-3.21-.04-4.8,2.6-4.8,5.7,0,3.71,0,6.81-.02,10.34,0,1.08-.01,8.77-.01,11.69,0,3.56,2.27,5.15,4.73,5.15s4.62-1.13,4.62-5.4c0-.53,.01-6.87,.02-9.38,0-2.93-1.05-3.21-2.88-4.86,.59,0,15.77-.01,17.15-.01Z"/>
    </g>
  </g>
</svg>