<svg width="113" height="97" viewBox="0 0 113 97" fill="none" xmlns="http://www.w3.org/2000/svg">
<path d="M113 0.956529L110.148 21.1576C104.445 20.685 99.8107 21.6301 96.2461 23.9928C92.6814 26.2374 90.1861 29.5451 88.7603 33.9161C87.4532 38.169 87.2156 43.1306 88.0473 48.8011H113V97H64.5205V48.8011C64.5205 31.7897 68.5011 18.913 76.4622 10.171C84.4232 1.31093 96.6025 -1.76057 113 0.956529ZM48.4795 0.956529L45.6278 21.1576C39.9243 20.685 35.2902 21.6301 31.7256 23.9928C28.1609 26.2374 25.6656 29.5451 24.2397 33.9161C22.9327 38.169 22.6951 43.1306 23.5268 48.8011H48.4795V97H0V48.8011C0 31.7897 3.98055 18.913 11.9416 10.171C19.9027 1.31093 32.082 -1.76057 48.4795 0.956529Z" fill="#46074D"/>
</svg>
