<svg viewBox="0 0 68 68" xmlns="http://www.w3.org/2000/svg">
                <path d="m36.78 63.71-.12-3.24.63-.07.54 3.19.25 2.39-1.05.11-.25-2.39zm8.22-.6.94-.37.43 1.12-.94.37zm-24.45.37c-1.27-.46-1.94-1.85-1.5-3.13l.94.42c-.22.78.22 1.6 1 1.85.61.39 1.41.21 1.8-.4.02-.02.03-.05.04-.08.24-.59 0-1.26-.57-1.56l-.65-.48c-1.05-.78-1.85-1.75-1.23-3.14.55-1.21 1.98-1.75 3.19-1.2.08.04.17.08.25.13 1.4.53 2.11 2.09 1.58 3.49-.01.03-.02.06-.04.09l-.94-.42c.35-.91-.1-1.93-1.01-2.28 0 0-.01 0-.02 0-.67-.41-1.54-.21-1.95.46-.02.03-.04.06-.05.1-.34.76.08 1.33.79 1.89l.71.55c.97.56 1.38 1.76.95 2.8-.34.77-1.12 1.26-1.96 1.22-.46 0-.91-.11-1.32-.3zm22.32-5.88-1.57.61-.31-.81 4.07-1.58.31.81-1.56.6 1.51 3.89 1.56-.6.31.81-2.5.97zm3.93-2.67.84-.62 2.15 2.91 2.47-1.83-2.15-2.91.84-.62 4.74 6.42-.84.62-2-2.71-2.48 1.83 2 2.71-.84.62zm-10.7 3.25 1.26-.13.13 1.26-1.26.13zm-21.74-.99c-1.28-1.06-1.37-2.04-.29-3.3l.92-1.1c.64-.76 1.13-1.44 1.36-1.77l.75.62-.54.68c.79-.27 1.66-.06 2.25.54.8.52 1.03 1.6.5 2.4-.03.04-.06.08-.09.12-.9 1.08-2.32.47-4.35-.87l-.16.2c-.48.43-.52 1.17-.09 1.65.08.09.17.16.27.22.44.5 1.21.55 1.72.11.04-.04.08-.08.12-.12l.8.66c-.38.41-.9.64-1.46.63-.63-.02-1.23-.25-1.71-.66zm1.06-3.48-.1.13c1.5 1.01 2.51 1.51 3.05.86.36-.43.25-.95-.3-1.4-.31-.28-.72-.45-1.14-.47-.61.04-1.18.37-1.52.88zm-5.56-1.22 2.78-3.95-4.62 1.36-.61-.85 6.29-1.8c1.18-.35 1.79-.36 2.52.66l.68.95-.71.5-.62-.87c-.36-.5-.54-.6-1.4-.38l-.13.04-3.53 5.23-.64-.9zm46.71-8.98c-.91-.83-1.24-1.35-.74-2.5l.46-1.07.8.34-.42.98c-.24.56-.24.77.4 1.39l.1.09 6.3.31-.44 1.02-4.82-.33 3.58 3.24-.41.96-4.8-4.44zm5.49-3.77-1.42-.21c-.99-.15-1.82-.22-2.22-.24l.14-.96.86.11c-.64-.54-.91-1.39-.71-2.2.03-.96.83-1.71 1.78-1.68.05 0 .1 0 .15.01 1.39.2 1.61 1.74 1.53 4.17l.25.04c.62.18 1.27-.17 1.45-.79.03-.11.05-.22.05-.34.2-.64-.16-1.32-.8-1.52-.05-.02-.11-.03-.16-.04l.15-1.02c1.19.31 1.91 1.51 1.62 2.71-.2 1.39-.8 2.02-1.97 2.02-.23 0-.46-.02-.69-.06zm-2.59-3.1c-.13.89.17 1.82 1.73 2.04l.16.02c.08-1.81-.01-2.93-.85-3.05-.05 0-.1-.01-.15-.01-.48 0-.8.35-.9 1zm-58.05 1.14 3.36-.3-.27-3.07-3.36.3-.09-1.04 7.95-.71.09 1.04-3.6.32.27 3.06 3.6-.32.09 1.04-7.95.71-.09-1.04zm57.27-7.4c-.28-1.47.69-2.89 2.16-3.16.03 0 .06-.01.09-.02l.12 1.03c-.96.17-1.6 1.09-1.42 2.05v.02c.1.79.6 1.54 1.51 1.43.83-.1 1.1-.75 1.2-1.65l.1-.89c-.02-1.12.79-2.09 1.9-2.26 1.29-.09 2.4.89 2.48 2.17v.16c.26 1.32-.58 2.61-1.9 2.9l-.12-1.02c.78-.22 1.25-1.02 1.06-1.81-.09-.72-.54-1.43-1.36-1.33-.7.08-.97.63-1.04 1.29l-.08.81c-.13 1.3-.54 2.49-2.05 2.68-.11.01-.22.02-.33.02-1.3-.05-2.33-1.11-2.35-2.41zm-50.39.48.29-1.65-4.11-.73-.29 1.64-.86-.15.46-2.64 4.97.88.29-1.65.85.15-.76 4.3-.85-.16zm-6.7-2.87.18-1 1.18.21-.18 1zm8.49-5.25.54-1.15 1.14.54-.54 1.14zm-3.84-1.93-2.18-1.03.45-.95 2.18 1.02 2.83 1.57-.27.58zm47.27-3.12 1-.77.77 1-1 .77zm2.04-1.17 2.45-2.12 1.91-1.46.64.84-1.91 1.46-2.7 1.79zm-7.95-4.25.53-.69 1.32 1.02 2.55-3.31-1.33-1.02.53-.69 2.13 1.63-3.08 4 1.33 1.03-.53.69-3.46-2.66zm-32.72 1.26.81-.64c.65.73 1.76.79 2.49.15 0 0 0 0 .01-.01.67-.4.9-1.27.5-1.94-.02-.03-.04-.06-.06-.09-.52-.65-1.22-.55-2.04-.17l-.81.38c-.95.6-2.2.41-2.92-.45-.74-1.05-.49-2.51.56-3.25.04-.03.09-.06.13-.09.99-.92 2.54-.86 3.47.11l-.81.64c-.6-.55-1.52-.54-2.1.04-.62.36-.83 1.15-.47 1.78.01.03.03.05.05.08.41.49 1.12.58 1.64.21l.73-.35c1.18-.57 2.41-.84 3.35.36.82 1.05.63 2.56-.42 3.38-.07.06-.14.11-.22.15-.52.43-1.18.68-1.86.69-.79 0-1.53-.36-2.03-.96zm30.09-2.69 1.37-3.35-2.84-1.17-1.38 3.34-.97-.4 3.03-7.38.97.4-1.28 3.12 2.85 1.17 1.28-3.12.97.4-3.03 7.37-.97-.4zm-23.63-.89c-.55-1.29.66-2.27 2.78-3.46l-.1-.23c-.16-.62-.8-1-1.43-.84-.11.03-.22.07-.32.14-.65.16-1.05.82-.88 1.47.01.06.03.11.05.16l-.95.4c-.35-1.18.31-2.41 1.47-2.79 1.52-.65 2.44-.28 3.06 1.26l.56 1.33c.38.92.76 1.67.94 2.02l-.89.38-.35-.79c-.13.83-.71 1.51-1.51 1.75-.29.13-.6.2-.91.2-.66.02-1.27-.38-1.52-.99zm.99-.45c.22.52.72.66 1.38.38.83-.36 1.47-1.09.85-2.54l-.06-.16c-1.59.87-2.5 1.54-2.17 2.31zm5.74.53 1.06-.15c.61-.09.78-.2.98-1.07l.02-.14-3-5.55 1.1-.15 2.22 4.3.93-4.74 1.03-.14-1.32 6.41c-.24 1.21-.51 1.76-1.75 1.93l-1.15.16zm24.97-2.12.73-.95.8.62-.73.95z" fill="#000000"></path>
            </svg>